<?xml version="1.0"?>
<svg xmlns="http://www.w3.org/2000/svg" height="512px" version="1.1" viewBox="-24 0 512 512" width="512px" class=""><g><g id="surface1">
<path d="M 451.484375 144.84375 C 443.339844 143.363281 435.523438 148.761719 434.042969 156.914062 L 433.554688 159.601562 L 30.25 159.601562 L 29.757812 156.914062 C 28.277344 148.765625 20.464844 143.359375 12.316406 144.84375 C 4.167969 146.324219 -1.238281 154.136719 0.246094 162.285156 L 32.691406 340.578125 C 32.707031 340.664062 32.722656 340.75 32.738281 340.839844 C 39.4375 374.300781 63.945312 404.570312 96.402344 420.390625 L 96.402344 456.832031 C 96.402344 487.253906 121.148438 512 151.570312 512 L 312.234375 512 C 342.652344 512 367.402344 487.253906 367.402344 456.832031 L 367.402344 420.390625 C 399.863281 404.566406 424.375 374.292969 431.0625 340.835938 C 431.082031 340.75 431.097656 340.664062 431.113281 340.578125 L 463.558594 162.285156 C 465.042969 154.136719 459.636719 146.324219 451.484375 144.84375 Z M 451.484375 144.84375 " style="fill:#00822A" data-original="#FDD1A3" class="active-path" data-old_color="#00822a"/>
<path d="M 451.484375 144.84375 C 443.339844 143.363281 435.523438 148.761719 434.042969 156.914062 L 433.554688 159.601562 L 231.898438 159.601562 L 231.898438 512 L 312.234375 512 C 342.652344 512 367.398438 487.253906 367.398438 456.832031 L 367.398438 420.390625 C 399.859375 404.566406 424.371094 374.292969 431.0625 340.835938 C 431.082031 340.75 431.097656 340.664062 431.113281 340.578125 L 463.558594 162.285156 C 465.042969 154.136719 459.636719 146.324219 451.484375 144.84375 Z M 451.484375 144.84375 " style="fill:#00822A" data-original="#FFBB85" class="" data-old_color="#00822a"/>
<path d="M 352.402344 16.066406 C 336.472656 16.066406 321.917969 22 310.789062 31.757812 C 299.867188 12.800781 279.40625 0 256.003906 0 C 232.597656 0 212.136719 12.800781 201.214844 31.757812 C 190.085938 22 175.527344 16.066406 159.601562 16.066406 C 131.574219 16.066406 107.765625 34.410156 99.511719 59.71875 C 89.226562 52.472656 76.707031 48.199219 63.199219 48.199219 C 28.351562 48.199219 0.00390625 76.550781 0.00390625 111.398438 L 0.00390625 159.601562 C 0.00390625 194.449219 28.351562 222.800781 63.199219 222.800781 C 82.503906 222.800781 99.800781 214.09375 111.402344 200.414062 C 123.003906 214.09375 140.300781 222.800781 159.601562 222.800781 C 194.449219 222.800781 222.800781 194.449219 222.800781 159.601562 L 222.800781 111.398438 L 289.199219 111.398438 C 289.199219 119.683594 295.914062 126.398438 304.199219 126.398438 C 312.484375 126.398438 319.199219 119.683594 319.199219 111.398438 L 385.601562 111.398438 C 385.601562 119.683594 392.316406 126.398438 400.601562 126.398438 C 408.882812 126.398438 415.601562 119.683594 415.601562 111.398438 L 415.601562 79.269531 C 415.601562 44.417969 387.25 16.066406 352.402344 16.066406 Z M 352.402344 16.066406 " style="fill:#00822A" data-original="#F5A86C" class="" data-old_color="#00822a"/>
<path d="M 352.402344 16.066406 C 336.472656 16.066406 321.917969 22 310.789062 31.757812 C 299.867188 12.800781 279.40625 0 256.003906 0 C 232.597656 0 212.136719 12.800781 201.214844 31.757812 L 201.214844 207.109375 C 214.433594 195.515625 222.804688 178.523438 222.804688 159.601562 L 222.804688 111.398438 L 289.199219 111.398438 C 289.199219 119.683594 295.917969 126.398438 304.199219 126.398438 C 312.484375 126.398438 319.199219 119.683594 319.199219 111.398438 L 385.601562 111.398438 C 385.601562 119.683594 392.316406 126.398438 400.601562 126.398438 C 408.882812 126.398438 415.601562 119.683594 415.601562 111.398438 L 415.601562 79.269531 C 415.601562 44.417969 387.25 16.066406 352.402344 16.066406 Z M 352.402344 16.066406 " style="fill:#00822A" data-original="#E99958" class="" data-old_color="#00822a"/>
<path d="M 400.601562 96.398438 L 256 96.398438 C 221.152344 96.398438 192.800781 124.75 192.800781 159.597656 C 192.800781 194.449219 221.152344 222.800781 256 222.800781 L 352.402344 222.800781 C 360.683594 222.800781 367.402344 216.085938 367.402344 207.800781 C 367.402344 205.386719 366.816406 203.117188 365.804688 201.097656 L 435.394531 166.300781 C 437.855469 171.21875 442.925781 174.597656 448.800781 174.597656 C 457.082031 174.597656 463.800781 167.882812 463.800781 159.597656 C 463.800781 124.75 435.449219 96.398438 400.601562 96.398438 Z M 400.601562 96.398438 " style="fill:#00822A" data-original="#FFBB85" class="" data-old_color="#00822a"/>
</g></g> </svg>
