<?xml version="1.0"?>
<svg xmlns="http://www.w3.org/2000/svg" xmlns:xlink="http://www.w3.org/1999/xlink" version="1.1" id="Capa_1" x="0px" y="0px" width="512px" height="512px" viewBox="0 0 739.583 739.583" style="enable-background:new 0 0 739.583 739.583;" xml:space="preserve"><g><g>
	<g>
		<path d="M646.092,294.508l-0.025-0.053c0.03,0.007,0.062,0.015,0.096,0.019C646.14,294.488,646.112,294.494,646.092,294.508z" data-original="#000000" class="active-path" data-old_color="#000000" fill="#00822A"/>
		<path d="M636.769,279.078c-0.003-0.001-0.005-0.001-0.006-0.001c0.001-0.016,0.006-0.032,0.006-0.047V279.078z" data-original="#000000" class="active-path" data-old_color="#000000" fill="#00822A"/>
	</g>
	<path d="M533.332,82.907c4.544-16.203-4.91-33.039-21.12-37.576c-16.219-4.558-33.047,4.917-37.598,21.12l-70.23,193.298   c-0.575,3.744-4.052,6.321-7.796,5.759c-3.735-0.576-6.312-4.046-5.753-7.789l3.779-227.686C394.614,13.457,381.173,0,364.581,0   c-16.59,0-30.033,13.458-30.033,30.033l-5.736,233.283c0,5.583-4.538,10.085-10.121,10.1c-8.169,0.056-9.777-7.642-9.777-7.642   c-0.204-0.787-49.095-206.004-49.095-206.004c-3.28-17.953-14.995-29.295-31.558-28.431c-16.576,0.871-29.303,15.002-28.438,31.571   l55.782,301.237c1.917,17.596-4.475,40.667-14.049,48.935c-7.051,6.104-36.037-7.67-39.282-9.523   c-18.556-10.647-41.636-24.345-64.225-38.701c-14.496-8.056-32.786-2.83-40.842,11.673c-8.056,14.512-2.831,32.802,11.666,40.851   c0,0,29.212,19.933,43.926,38.932c41.06,53.008,95.424,161.812,120.211,167.731v76.249c0,21.162,20.423,38.342,41.55,39.051   c1.412,0.154,122.654,0.239,122.654,0.239c23.149,0,37.127-18.769,37.127-41.918v-79.689   c45.289-33.931,34.451-151.457,34.451-154.357l0.638-117.062c1.463-18.859,1.099-46.862-23.451-53.465   c-4.888-1.32-24.82-2.001-25.586-2.76L533.332,82.907z" data-original="#000000" class="active-path" data-old_color="#000000" fill="#00822A"/>
</g></g> </svg>
