<?xml version="1.0" encoding="iso-8859-1"?>
<!-- Generator: Adobe Illustrator 19.0.0, SVG Export Plug-In . SVG Version: 6.00 Build 0)  -->
<svg version="1.1" id="Capa_1" xmlns="http://www.w3.org/2000/svg" xmlns:xlink="http://www.w3.org/1999/xlink" x="0px" y="0px"
	 viewBox="0 0 511.88 511.88" style="enable-background:new 0 0 511.88 511.88;" xml:space="preserve">
<g transform="matrix(1.25 0 0 -1.25 0 45)">
	<g>
		<g>
			<path style="fill:#66757F;" d="M310.518-49.135c-13.107,34.748-30.151,77.369-94.413,78.677
				c-20.014,0.41-17.306-6.133-3.948-11.605c25.577-10.49-28.149-61.872,54.147-84.196
				C330.554-83.678,323.625-83.883,310.518-49.135"/>
			<path style="fill:#99AAB5;" d="M409.504-7.879c-88.03,0-163.954-28.604-205.995-65.502
				c-55.467-48.697-61.212-117.259-159.676-178.176c-32.393-20.025-4.813-85.527,13.107-109.431
				c21.709-28.945,325.598-2.708,352.563,99.863V-7.879z"/>
			<g>
				<path style="fill:#66757F;" d="M98.618-300.88c11.503-5.769,20.332-11.958,14.996-22.596
					c-5.336-10.661-13.346-2.844-24.849,2.924c-11.514,5.769-26.01,0.205-20.662,10.854
					C73.439-299.059,87.104-295.111,98.618-300.88"/>
				<path style="fill:#66757F;" d="M389.024-35.482c2.708,29.161-24.781,56.878-67.698,67.209
					c-19.172,4.608-37.331,3.971-26.681-5.439c20.4-18.034-0.933-45.591,14.495-81.055c8.294-19.046,36.841-42.712,53.692-43.474
					C374.848-98.788,386.203-65.838,389.024-35.482"/>
			</g>
			<path style="fill:#99AAB5;" d="M378.216-35.482c2.708,29.161-25.85,61.952-70.201,68.346c-19.524,2.81-26.021-0.99-15.383-10.399
				c20.412-18.034-7.259-41.267,8.169-76.743c8.283-19.046,38.616-43.691,55.467-44.453
				C368.283-99.277,375.394-65.838,378.216-35.482"/>
			<g>
				<path style="fill:#CCD6DD;" d="M29.93-269.545C0.894-224.228-11.325-133.342,12.966-69.33
					c3.652,9.614,12.322,12.186,13.403-1.479c2.059-25.964,27.5-77.744,90.635-124.791
					C131.124-206.114,52.003-303.997,29.93-269.545"/>
				<path style="fill:#CCD6DD;" d="M150.637-138.576c-23.302,9.694-41.062,36.284-46.558,53.032
					c-6.565,20.002-24.485-44.681,9.694-101.16C127.495-209.391,166.714-145.266,150.637-138.576"/>
			</g>
			<path style="fill:#292F33;" d="M213.681-202.507c0-12.572-10.195-22.756-22.756-22.756c-12.572,0-22.756,10.183-22.756,22.756
				c0,12.561,10.183,22.756,22.756,22.756C203.487-179.752,213.681-189.946,213.681-202.507"/>
			<path style="fill:#E6AAAA;" d="M344.537-70.571c15.144-1.195,22.232,19.763,13.835,53.373
				c-7.327,29.298-48.378,36.944-48.094,34.918c0.284-2.037,12.026-17.624,0.159-33.439
				C298.89-31.113,325.764-69.092,344.537-70.571"/>
		</g>
	</g>
</g>
<g>
</g>
<g>
</g>
<g>
</g>
<g>
</g>
<g>
</g>
<g>
</g>
<g>
</g>
<g>
</g>
<g>
</g>
<g>
</g>
<g>
</g>
<g>
</g>
<g>
</g>
<g>
</g>
<g>
</g>
</svg>
