<?xml version="1.0" encoding="UTF-8"?>
<svg xmlns="http://www.w3.org/2000/svg" xmlns:xlink="http://www.w3.org/1999/xlink" width="80pt" height="80pt" viewBox="0 0 80 80" version="1.1">
<g id="surface1">
<path style=" stroke:none;fill-rule:nonzero;fill:rgb(94.117647%,33.333333%,25.098039%);fill-opacity:1;" d="M 59.832031 11.5 L 69 11.5 L 69 27.5 L 59.832031 27.5 Z M 59.832031 11.5 "/>
<path style=" stroke:none;fill-rule:nonzero;fill:rgb(95.294118%,43.921569%,35.294118%);fill-opacity:1;" d="M 56.332031 3.332031 L 72.5 3.332031 L 72.5 12 L 56.332031 12 Z M 56.332031 3.332031 "/>
<path style=" stroke:none;fill-rule:nonzero;fill:rgb(100%,81.960784%,36.078431%);fill-opacity:1;" d="M 7 43.167969 L 7 80 L 72.332031 80 L 72.332031 43.167969 C 59.5 30.332031 52.332031 23.167969 39.667969 10.5 C 27 23.332031 19.832031 30.5 7 43.167969 Z M 7 43.167969 "/>
<path style=" stroke:none;fill-rule:nonzero;fill:rgb(96.862745%,71.372549%,29.803922%);fill-opacity:1;" d="M 72.5 43.167969 C 59.667969 30.332031 52.5 23.167969 39.832031 10.5 C 33.332031 16.832031 28.332031 21.832031 23.332031 26.832031 C 18.332031 31.832031 13.332031 36.832031 7 43.167969 L 7 50.667969 C 19.832031 37.832031 27 30.667969 39.667969 18 C 52.5 30.832031 59.667969 38 72.332031 50.667969 L 72.332031 51.667969 L 72.332031 43.167969 Z M 72.5 43.167969 "/>
<path style=" stroke:none;fill-rule:nonzero;fill:rgb(25.490196%,35.294118%,41.960784%);fill-opacity:1;" d="M 33.832031 80 L 14.167969 80 L 14.167969 60.667969 C 14.167969 55.167969 18.667969 50.832031 24 50.832031 C 29.5 50.832031 33.832031 55.332031 33.832031 60.667969 Z M 33.832031 80 "/>
<path style=" stroke:none;fill-rule:nonzero;fill:rgb(20.392157%,29.019608%,36.862745%);fill-opacity:1;" d="M 39.667969 50.832031 L 65.332031 50.832031 L 65.332031 73.332031 L 39.667969 73.332031 Z M 39.667969 50.832031 "/>
<path style=" stroke:none;fill-rule:nonzero;fill:rgb(54.117647%,84.313725%,97.254902%);fill-opacity:1;" d="M 42.332031 53.5 L 51.167969 53.5 L 51.167969 70.667969 L 42.332031 70.667969 Z M 42.332031 53.5 "/>
<path style=" stroke:none;fill-rule:nonzero;fill:rgb(54.117647%,84.313725%,97.254902%);fill-opacity:1;" d="M 53.832031 53.5 L 62.667969 53.5 L 62.667969 70.667969 L 53.832031 70.667969 Z M 53.832031 53.5 "/>
<path style=" stroke:none;fill-rule:nonzero;fill:rgb(95.294118%,43.921569%,35.294118%);fill-opacity:1;" d="M 78.5 36.332031 L 43.667969 1.5 C 41.667969 -0.5 38.167969 -0.5 36.167969 1.5 L 1.5 36.332031 C -0.5 38.332031 -0.5 41.832031 1.5 43.832031 C 3.5 45.832031 7 45.832031 9 43.832031 L 40 12.832031 L 71 43.832031 C 73 45.832031 76.5 45.832031 78.5 43.832031 C 80.5 41.667969 80.5 38.332031 78.5 36.332031 Z M 78.5 36.332031 "/>
</g>
</svg>
